/* XPM */
static char *gnofract4d-logo[] = {
/* columns rows colors chars-per-pixel */
"32 31 199 2",
"   c #000000",
".  c #020902",
"X  c #030D0C",
"o  c #0B0101",
"O  c #130505",
"+  c #150B0A",
"@  c #190404",
"#  c #190B0B",
"$  c #1B1412",
"%  c #1E1919",
"&  c #0E2525",
"*  c #1D2120",
"=  c #1B2E2C",
"-  c #153D3D",
";  c #1C3634",
":  c #210202",
">  c #230C0C",
",  c #2E0E0E",
"<  c #241414",
"1  c #261A13",
"2  c #241D1A",
"3  c #2B1414",
"4  c #2A1C1C",
"5  c #331811",
"6  c #331D1C",
"7  c #3C1C1C",
"8  c #262424",
"9  c #262C2C",
"0  c #2B2B22",
"q  c #2D2D2D",
"w  c #2F3D3C",
"e  c #302020",
"r  c #352B2A",
"t  c #3C2A26",
"y  c #303B38",
"u  c #25463D",
"i  c #005E5D",
"p  c #00605F",
"a  c #006564",
"s  c #006867",
"d  c #006C6B",
"f  c #00706F",
"g  c #007473",
"h  c #017877",
"j  c #007D7B",
"k  c #097270",
"l  c #0C7D7C",
"z  c #1E6B6A",
"x  c #1C7574",
"c  c #264747",
"v  c #2F4740",
"b  c #27514E",
"n  c #205B5A",
"m  c #2C5754",
"M  c #324545",
"N  c #394C4C",
"B  c #305353",
"V  c #3E5554",
"C  c #3C5E5E",
"Z  c #3F605E",
"A  c #296C6B",
"S  c #2F7D7B",
"D  c #326562",
"F  c #366D6C",
"G  c #397373",
"H  c #3E7D7D",
"J  c #4A261E",
"K  c #413232",
"L  c #443A35",
"P  c #453C3B",
"I  c #4B3B3A",
"U  c #51493C",
"Y  c #4F4040",
"T  c #41655B",
"R  c #53605A",
"E  c #436160",
"W  c #416A6A",
"Q  c #407E7D",
"!  c #596363",
"~  c #547775",
"^  c #567D7C",
"/  c #00807F",
"(  c #008482",
")  c #018887",
"_  c #018C8B",
"`  c #098280",
"'  c #0C8D8B",
"]  c #04918F",
"[  c #08918F",
"{  c #039593",
"}  c #049897",
"|  c #059C9A",
" . c #0A9593",
".. c #0A9897",
"X. c #0B9D9B",
"o. c #139492",
"O. c #149E9C",
"+. c #05A09E",
"@. c #0AA09E",
"#. c #14A09E",
"$. c #0CA4A2",
"%. c #0CA8A6",
"&. c #0EAAA8",
"*. c #13A4A3",
"=. c #12A9A7",
"-. c #15ACAB",
";. c #18A6A4",
":. c #19A9A7",
">. c #1DADAB",
",. c #15B0AE",
"<. c #1DB0AF",
"1. c #1DB2B0",
"2. c #3C8B8A",
"3. c #22A8A6",
"4. c #23ACAB",
"5. c #22B1AF",
"6. c #24B3B1",
"7. c #2BB6B4",
"8. c #35A3A2",
"9. c #31B6B4",
"0. c #31B8B7",
"q. c #35BAB8",
"w. c #39B9B7",
"e. c #3BBCBA",
"r. c #458684",
"t. c #459E9D",
"y. c #4F9998",
"u. c #588585",
"i. c #539392",
"p. c #559D9C",
"a. c #45A9A8",
"s. c #4BA2A1",
"d. c #44BEBD",
"f. c #56B7B5",
"g. c #5AB9B8",
"h. c #658D8C",
"j. c #649493",
"k. c #739493",
"l. c #61A7A7",
"z. c #65A8A7",
"x. c #6AA6A6",
"c. c #6DABAA",
"v. c #6ABCBA",
"b. c #73A9A4",
"n. c #7CA5A4",
"m. c #76B8B7",
"M. c #71BCBA",
"N. c #7FB0B0",
"B. c #7BB9B1",
"V. c #46C0BE",
"C. c #49C0BF",
"Z. c #4EC2C0",
"A. c #53C3C2",
"S. c #5BC6C5",
"D. c #60C7C6",
"F. c #62C8C7",
"G. c #65CAC9",
"H. c #6FC4C3",
"J. c #6CCCCA",
"K. c #73CDCC",
"L. c #79CFCD",
"P. c #7CD0CF",
"I. c #7ED1D0",
"U. c #8DADAC",
"Y. c #84B3B2",
"T. c #84BEBD",
"R. c #91BCBB",
"E. c #9DB7B6",
"W. c #85C3C2",
"Q. c #8DCECD",
"!. c #85D3D2",
"~. c #8AD5D4",
"^. c #9ACDCC",
"/. c #93D6D5",
"(. c #95D8D7",
"). c #95D9D8",
"_. c #9AD3D2",
"`. c #9FD8D7",
"'. c #9DDBDA",
"]. c #A4D4D3",
"[. c #A3DDDC",
"{. c #ADD6D5",
"}. c #ABDCDC",
"|. c #B4D5D5",
" X c #B2DFDE",
".X c #ACE0DF",
"XX c #B3E0DF",
"oX c #ADE3E2",
"OX c #B3E2E2",
"+X c #BBE5E4",
"@X c #BFE9E9",
"#X c #C1E6E6",
"$X c #C4E8E7",
"%X c #C5E9E9",
"&X c #CCEBEB",
"*X c #CFF1F1",
"=X c #D2EDEC",
"-X c #E3F2F1",
";X c None",
/* pixels */
";X;X;X;X;X;X;X;X;X ._ @._ _ %.*.) j j g g j *.;X;X;X;X;X;X;X;X;X",
";X;X;X;X;X;X;X*.e.$.X.>.} } 6.$._ ) ..) j ) *. .j ;X;X;X;X;X;X;X",
";X;X;X;X;X;Xq.q.F.6.6.d.%.6.A.>.{ X.;._ ) X.*./ g d ;X;X;X;X;X;X",
";X;X;X;XZ.~.!.I.J.d.Z.A.0.e.S.6.%.>.$.{ } 6.X.) j g g g ;X;X;X;X",
";X;X;X<.J.'.#X=X[.~.L.J.G.J.S.0.6.g.,.&.7.7.} _ X._ j ( O.;X;X;X",
";X;X$.6.S.+X-XOX$X$X+X[.}.}.!.F.G.A.7.1.S.e.%.| =. .)  .7.:.;X;X",
";X;Xq.Z.J.}.OXi.c.'.[.+X].E.$X'.'.G.S.Z.S.q.,.6.4.| } 5.$.) ;X;X",
";X_ $.6.S.(.$XM.T C G a.A W oX=XoX!.I.P.I.A.Z.Z.7.-.V.7.{ / g ;X",
";XX.=.q.S.I.+XQ.y : P e Y N p.^.&X$X+X X[.~.K.I.F.A.S.1.} ..( ;X",
" .#.4.d.G.I.}.T.y 1 .     O P f.oX%X%XOX+X$XoX[.'.).K.e.7.@./ j ",
") { $.1.g.~.&XL.b t         3 x 8.t.s.E r.'.=X%X%XW.R.J.6.| { O.",
"{ | 6.q.S.'.{.W 5           e t & % 8 2 = 2.g.u.y.~ Y.~.V.q.-.;.",
">.0.Z.A.J.)._.Q L 1         > @     o   O r * O 0 U U.[.Z.5.} ) ",
"{ | 1.1.Z.I.+XOXQ 7 o                     o o   4 C [.'.d.<.X.O.",
") _ | -.d.L.[.$XQ.2.; J +                     o I c.$X~.A.q.$.{ ",
") ..>.e.A.J.(.@X&XG.z ,                       O M W.$XI.e.,.| ) ",
" .} $.1.7.Z.L.@X=XH.c <                         q M.@X(.Z.d.1.:.",
"j ) { %.6.g.!.oX=Xz.4 o                         + D B.}.Z.d.5.>.",
") _ $.q.Z.A.~.OX}.F K                           . v b.).e.-.{ ) ",
":.-.1.e.Z.A.J.[.}.N <                         o 9 T.[.J.Z.<.X.) ",
"O. .} $.,.e.G.[.$Xz.q                         2 R {./.Z.-.@.} ) ",
"j j _ } &.0.F.'.=X!.n ,                 o X ; h.{.'.G.A.0.} ( j ",
";Xj { :.0.d.S.).&Xn.r #                 - x.].+X[.G.q.7.5.9. .;X",
";Xj } { $.<.Z.(.%Xh.4     +           X j.*X+X).J.S.7.| { ..$.;X",
";X;X/ _ $.q.S.oXT.E e I 9 c $ o .   $ C }..X).G.e.<.7.4.) j ;X;X",
";X;X) *.6.g.Z.!.Y.^ G k.Y.v.S 2 0 m ! |..XP.A.S.q.$.} X.{ g ;X;X",
";X;X;X:.@.$.,.A.~.(.'.@X+X&X_.B ^ }.}.[.L.d.7.e.d.$._ ) j ;X;X;X",
";X;X;X;X) } &.1.d.G.K.I.L./.}.].[.'.~.A.e.d.&.:.-.6.} / ;X;X;X;X",
";X;X;X;X;X;X{ @.e.q.7.g.Z.S.J.J.G.Z.S.e.-.>.*._ } :.;X;X;X;X;X;X",
";X;X;X;X;X;X;X} <.*.-.6.,.g.d.6.w.-.0.d.X.} $.' / ;X;X;X;X;X;X;X",
";X;X;X;X;X;X;X;X;X_ $.| $.7.w.@.-.} X.7...( _ ;X;X;X;X;X;X;X;X;X"
};
